<svg width="130" height="44" viewBox="0 0 130 44" fill="none" xmlns="http://www.w3.org/2000/svg">
<g clip-path="url(#clip0_9698_26388)">
<path d="M0 28.6526L4.92777 27.6597C5.61568 30.98 7.5579 32.4912 11.1396 32.4912C14.0656 32.4912 15.7418 31.5372 15.7418 29.8954C15.7418 28.4164 14.5265 27.4946 9.39922 26.3779C3.05664 24.9654 0.557212 22.9383 0.557212 19.4758C0.557212 15.7679 4.09998 12.7778 9.66063 12.7778C14.9209 12.7778 18.9291 15.44 19.9794 19.6799L15.1158 20.8264C14.3591 18.327 12.4857 17.0452 9.62623 17.0452C7.2277 17.0452 5.58358 18.0656 5.58358 19.446C5.58358 20.5925 6.6682 21.2208 11.7955 22.3375C17.9087 23.6858 20.7682 25.9193 20.7682 29.8633C20.7682 34.0711 17.0213 36.7425 11.1053 36.7425C4.92777 36.7379 0.889704 33.8119 0 28.6526ZM23.2309 18.8246H27.8973V20.3701H27.9638C29.3098 18.9942 31.3483 18.3316 33.584 18.3316C38.7434 18.3316 42.621 22.31 42.621 27.5359C42.621 32.7617 38.7755 36.7379 33.6161 36.7379C31.4469 36.7379 29.2777 35.9812 28.161 34.9034H28.0945V43.6469H23.2309V18.8246ZM37.3905 25.291C37.2004 24.6821 36.8173 24.1517 36.299 23.7798C32.6003 21.1589 28.0945 23.4818 28.0945 26.4169V28.6205C28.0945 30.7232 30.1582 32.4636 32.8594 32.4636C36.4045 32.4751 38.6861 29.3864 37.3905 25.291ZM45.2167 18.8246H49.7845V20.5008H49.851C51.1328 19.1869 52.8732 18.4875 54.9782 18.4875C55.9488 18.498 56.9125 18.6526 57.8377 18.9461L56.8172 23.3166C55.9998 23.0681 55.1492 22.9459 54.2949 22.9543C51.6969 22.9543 50.0871 24.665 50.0871 28.2788V36.2334H45.2167V18.8246ZM61.6235 11.1016H63.0131C63.4959 11.1016 63.959 11.2934 64.3005 11.6348C64.6419 11.9763 64.8338 12.4394 64.8338 12.9222V14.1467C64.8331 14.6292 64.6411 15.0917 64.2997 15.4327C63.9583 15.7736 63.4956 15.9651 63.0131 15.9651H61.6235C61.1412 15.9651 60.6787 15.7735 60.3377 15.4325C59.9967 15.0915 59.8051 14.629 59.8051 14.1467V12.9222C59.8048 12.6833 59.8516 12.4466 59.9429 12.2257C60.0341 12.0048 60.168 11.8041 60.3369 11.635C60.5058 11.4659 60.7063 11.3317 60.9271 11.2402C61.1479 11.1487 61.3845 11.1016 61.6235 11.1016ZM59.9037 18.8246H64.7673V36.2518H59.9037V18.8246ZM66.7003 18.8246H72.0569L77.5143 30.5925H77.5785L83.0337 18.8246H88.4247L79.7478 36.2518H75.313L66.7003 18.8246ZM88.3238 27.568C88.3238 22.2114 92.2678 18.3316 97.7895 18.3316C103.639 18.3316 107.255 22.4728 107.255 27.6987V29.0745H93.1231C93.2859 31.3423 95.1273 32.7892 98.0532 32.7892C100.222 32.7892 101.722 31.9339 103.41 30.1912L106.434 33.2158C104.428 35.4194 101.832 36.7333 98.0853 36.7333C91.972 36.7379 88.3238 33.0896 88.3238 27.568ZM102.522 25.6624C102.293 23.6239 100.484 22.2756 97.8881 22.2756C95.2924 22.2756 93.451 23.6239 93.1873 25.6624H102.522Z" fill="#DA2972"/>
<path opacity="0.8" d="M129.688 2.11741L123.937 0.372398C123.855 0.348135 123.767 0.348711 123.685 0.374054C123.603 0.399398 123.53 0.448386 123.475 0.514907C123.421 0.581428 123.387 0.662537 123.378 0.748112C123.369 0.833687 123.386 0.91994 123.426 0.996108L124.19 2.43614L118.365 5.53635C118.117 5.66863 117.913 5.87018 117.778 6.11642C117.643 6.36265 117.582 6.64292 117.604 6.92302C117.625 7.20311 117.728 7.47092 117.899 7.69377C118.07 7.91661 118.302 8.08485 118.567 8.17795L122.043 9.40244L126.597 6.97868L127.425 8.53796C127.466 8.61369 127.528 8.6757 127.604 8.71619C127.679 8.75668 127.766 8.77384 127.851 8.7655C127.937 8.75717 128.018 8.72371 128.084 8.66935C128.151 8.61499 128.2 8.54215 128.225 8.45999L129.989 2.66545C130.006 2.60975 130.012 2.55119 130.006 2.49321C130 2.43524 129.982 2.37904 129.954 2.32794C129.926 2.27685 129.888 2.23188 129.843 2.19572C129.797 2.15956 129.744 2.13293 129.688 2.11741Z" fill="url(#paint0_linear_9698_26388)"/>
<path opacity="0.8" d="M119.11 21.734L125.139 18.5238C125.387 18.3924 125.592 18.1913 125.729 17.9452C125.865 17.6991 125.926 17.4186 125.906 17.1381C125.885 16.8576 125.783 16.5892 125.612 16.3657C125.441 16.1422 125.209 15.9734 124.944 15.8799L121.467 14.6554L116.689 17.2007C116.088 17.523 115.64 18.0706 115.442 18.7233C115.245 19.376 115.315 20.0803 115.636 20.6815C115.959 21.2806 116.505 21.7276 117.156 21.9249C117.807 22.1221 118.51 22.0535 119.11 21.734Z" fill="url(#paint1_linear_9698_26388)"/>
<path d="M127.831 11.4547C127.757 11.4226 127.682 11.3928 127.601 11.3652L122.043 9.40698L118.604 8.19625L118.562 8.18249C118.297 8.08939 118.065 7.92115 117.894 7.69831C117.723 7.47546 117.621 7.20765 117.599 6.92756C117.578 6.64746 117.638 6.3672 117.774 6.12096C117.909 5.87473 118.113 5.67317 118.36 5.54089L115.471 7.091C114.965 7.36264 114.544 7.77093 114.258 8.26949C113.972 8.76805 113.832 9.33687 113.853 9.91131C113.874 10.4858 114.055 11.0428 114.377 11.5191C114.699 11.9954 115.148 12.3719 115.673 12.6058C115.748 12.6405 115.824 12.6711 115.902 12.6975L121.461 14.6558L124.9 15.8665L124.942 15.8803C125.207 15.9734 125.439 16.1416 125.61 16.3644C125.781 16.5873 125.883 16.8551 125.905 17.1352C125.926 17.4153 125.866 17.6956 125.73 17.9418C125.595 18.188 125.391 18.3896 125.143 18.5219L128.037 16.9718C128.544 16.6997 128.964 16.2912 129.25 15.7925C129.536 15.2938 129.676 14.7249 129.655 14.1503C129.634 13.5758 129.453 13.0187 129.131 12.5422C128.809 12.0657 128.36 11.689 127.835 11.4547H127.831Z" fill="#DA2972"/>
</g>
<defs>
<linearGradient id="paint0_linear_9698_26388" x1="117.602" y1="4.88283" x2="129.998" y2="4.88283" gradientUnits="userSpaceOnUse">
<stop stop-color="#DA2972" stop-opacity="0"/>
<stop offset="0.07" stop-color="#DA2972" stop-opacity="0.17"/>
<stop offset="0.16" stop-color="#DA2972" stop-opacity="0.36"/>
<stop offset="0.26" stop-color="#DA2972" stop-opacity="0.53"/>
<stop offset="0.36" stop-color="#DA2972" stop-opacity="0.68"/>
<stop offset="0.47" stop-color="#DA2972" stop-opacity="0.79"/>
<stop offset="0.58" stop-color="#DA2972" stop-opacity="0.89"/>
<stop offset="0.7" stop-color="#DA2972" stop-opacity="0.95"/>
<stop offset="0.83" stop-color="#DA2972" stop-opacity="0.99"/>
<stop offset="1" stop-color="#DA2972"/>
</linearGradient>
<linearGradient id="paint1_linear_9698_26388" x1="115.322" y1="18.3472" x2="125.902" y2="18.3472" gradientUnits="userSpaceOnUse">
<stop stop-color="#DA2972"/>
<stop offset="0.09" stop-color="#DA2972" stop-opacity="0.98"/>
<stop offset="0.22" stop-color="#DA2972" stop-opacity="0.91"/>
<stop offset="0.36" stop-color="#DA2972" stop-opacity="0.8"/>
<stop offset="0.52" stop-color="#DA2972" stop-opacity="0.64"/>
<stop offset="0.69" stop-color="#DA2972" stop-opacity="0.44"/>
<stop offset="0.87" stop-color="#DA2972" stop-opacity="0.2"/>
<stop offset="1" stop-color="#DA2972" stop-opacity="0"/>
</linearGradient>
<clipPath id="clip0_9698_26388">
<rect width="130" height="43.2791" fill="white" transform="translate(0 0.360474)"/>
</clipPath>
</defs>
</svg>
